<svg id="Capa_1" data-name="Capa 1" xmlns="http://www.w3.org/2000/svg" viewBox="0 0 1242 1242"><defs><style>.cls-1,.cls-5{fill:#414142;}.cls-2{fill:#ec610a;}.cls-3{fill:#fff;}.cls-4{fill:#a40a3c;}.cls-5{font-size:170px;font-family:BritannicBold, Britannic Bold;}</style></defs><title>illustrator pizza</title><circle class="cls-1" cx="615.5" cy="666.5" r="508.5"/><circle class="cls-2" cx="617" cy="666" r="485"/><path class="cls-1" d="M139.67,288.45,895.47,43.71c9.93-3.21,19.86,4.9,18.38,15L749.44,1186.46c-1.83,12.58-18.62,16.23-25.75,5.6l-591.38-883A13.67,13.67,0,0,1,139.67,288.45Z"/><path class="cls-3" d="M190.6,306.27,862.9,83.63A12.54,12.54,0,0,1,879.26,97.3L733,1123.22a12.54,12.54,0,0,1-22.9,5.1L184.05,325.05A12.55,12.55,0,0,1,190.6,306.27Z"/><path class="cls-4" d="M828.65,212.54,272.14,396.84a10.38,10.38,0,0,0-5.42,15.54l295.35,451a89,89,0,0,1,97.5,148.87l42.6,65.06a10.38,10.38,0,0,0,19-4.22L842.19,223.86A10.38,10.38,0,0,0,828.65,212.54ZM499,583a89,89,0,1,1,89-89A89,89,0,0,1,499,583ZM772,362.67l-3.29,57.88a7,7,0,0,1-7.4,6.6l-130.76-7.42a7,7,0,0,1-6.61-7.4l3.29-57.88a7,7,0,0,1,7.4-6.6l130.76,7.42A7,7,0,0,1,772,362.67Z"/><rect class="cls-1" x="252" y="723.91" width="730" height="239.09" rx="23.26"/><rect class="cls-3" x="284.74" y="719" width="664.26" height="211.33"/><path class="cls-1" d="M26.9,621.1,84.26,800.27C93,827.71,119,842.49,143.4,833.84c129-45.8,528.41-160.61,934.77-1,23.87,9.38,50-4.13,59.71-30.83l65.4-179.59c10.63-29.19-2.37-62.62-28.42-73.05C1028.5,490.85,563.65,340.81,55.65,550.47,30.64,560.79,17.75,592.5,26.9,621.1Z"/><text class="cls-5" transform="translate(396.94 903.49)">PIZZA</text><path class="cls-3" d="M174.81,702.51a43.63,43.63,0,0,0,3.84,7.23,13.87,13.87,0,0,0,3.72,3.82,10,10,0,0,0,4.39,1.52,38.22,38.22,0,0,0,7.28-.18c.54,1.3,1.09,2.59,1.63,3.88q-19.77,5.88-39.28,12.35c-.6-1.28-1.21-2.55-1.81-3.83,3.3-2.06,5.35-3.79,6.14-5.22a7.11,7.11,0,0,0,.47-5.16,51.88,51.88,0,0,0-3.37-8.82q-15.56-33.95-31.33-67.88a53.28,53.28,0,0,0-4.16-7.72,11,11,0,0,0-3.42-3.33,10.06,10.06,0,0,0-4-1.24,43.76,43.76,0,0,0-7.32.22c-.61-1.27-1.23-2.55-1.84-3.83q24.69-8,49.74-15.09c15.76-4.49,28.55-5.25,38.1-2.51s16.08,9,19.69,18.78a32.52,32.52,0,0,1,2,15.84,27,27,0,0,1-5.77,13.43,39.93,39.93,0,0,1-12.58,10.11,88.85,88.85,0,0,1-17.22,6.93c-7,2-12.46,3.57-16.39,4.52Q169.07,689.43,174.81,702.51Zm-14.38-32.72q5.5-1.66,11-3.3,10.77-3.16,16.85-7.47A18.56,18.56,0,0,0,196,648.23c1.08-4.31.47-9.47-1.89-15.46a30,30,0,0,0-6.78-10.8,23.7,23.7,0,0,0-9.29-5.63,29.68,29.68,0,0,0-11.28-1.24,61.2,61.2,0,0,0-12.72,2.33c-6.61,1.91-11.52,3.49-14.75,4.7Q149.92,646,160.43,669.79Z"/><path class="cls-3" d="M310.73,689.86c-.39-1.32-.77-2.64-1.16-4a32.91,32.91,0,0,0,6.44-3.21,6.65,6.65,0,0,0,2.65-3.4,8.53,8.53,0,0,0-.18-4.89,28.39,28.39,0,0,0-2.44-5.81,75.22,75.22,0,0,0-4.23-6.74q-3.26-4.87-6.55-9.74-22.49,4.53-44.77,9.74-.3,4.32-.57,8.64a65.94,65.94,0,0,0-.14,9.76,24.21,24.21,0,0,0,1.15,5.72q1.65,4.81,5.24,6.39c2.4,1,5.61,1.36,9.66.94l1.3,3.94q-19.69,4.57-39.18,9.7c-.49-1.31-1-2.61-1.46-3.91a13,13,0,0,0,7-7.52q2.21-5.46,2.89-14.7,3.76-49.21,11.16-98.51,8.16-1.75,16.35-3.43,31.11,41.46,59.31,83.81a94.76,94.76,0,0,0,6.58,8.94,17.85,17.85,0,0,0,5.54,4.45,18.09,18.09,0,0,0,7.38,1.58c.33,1.33.65,2.67,1,4Q332.16,685.43,310.73,689.86Zm-50-35.61q20.14-4.66,40.44-8.78-16.83-24.26-34.62-48.21Q263.07,625.76,260.74,654.25Z"/><path class="cls-3" d="M385.54,626.34q2.88,13.93,5.74,27.87a52.61,52.61,0,0,0,2.28,8.49,10.62,10.62,0,0,0,2.4,3.79,8.36,8.36,0,0,0,3.29,1.8,37.56,37.56,0,0,0,6.54,1.07l.78,4q-19.9,2.75-39.71,6c-.31-1.34-.62-2.67-.94-4q5.54-2.28,7.17-4.18a7.24,7.24,0,0,0,1.58-5,49.36,49.36,0,0,0-1.39-9.1q-7.9-35.37-15.85-70.72a49.51,49.51,0,0,0-2.37-8.14,9.78,9.78,0,0,0-2.61-3.73,9.24,9.24,0,0,0-3.68-1.79,41.58,41.58,0,0,0-7.21-.83c-.31-1.34-.62-2.67-.94-4q25.83-4.22,51.78-7.61c16.37-2.14,29-1.18,37.84,2.61s13.85,10.66,15.26,20.5a26.18,26.18,0,0,1-4.83,20c-4.28,5.82-11.18,10.76-20.67,14.93,0,.22.07.44.11.66a31.22,31.22,0,0,1,11.34,4.66,61.6,61.6,0,0,1,11.38,10.85q5.44,6.28,10.77,12.6a91.69,91.69,0,0,0,7.74,8.42,24.1,24.1,0,0,0,6.11,4.26,20.93,20.93,0,0,0,7.65,1.64l.51,4q-13.16,1.19-26.29,2.6a114.17,114.17,0,0,1-8.31-8.64q-4-4.65-8.08-9.47-5.39-6.37-10.87-12.72a87.22,87.22,0,0,0-8.05-8.41,19.71,19.71,0,0,0-5.39-3.56,15.54,15.54,0,0,0-4.85-1.05,43.49,43.49,0,0,0-7.36.53Q391,625.56,385.54,626.34Zm-11.49-55.72q5,24.33,10,48.67,5.61-.81,11.24-1.58a80.49,80.49,0,0,0,13.86-2.88,28.06,28.06,0,0,0,9.3-5.15,19.84,19.84,0,0,0,6-8.9,26.1,26.1,0,0,0,.72-12.95,24.62,24.62,0,0,0-5.48-12.62,22.24,22.24,0,0,0-11.56-6.68c-4.9-1.25-11.25-1.38-19-.34C382.93,569,377.89,569.85,374.05,570.62Z"/><path class="cls-3" d="M567.11,549.22q.4,11.49.8,23c-3.41.09-6.83.18-10.24.29a32.93,32.93,0,0,0-6.87-11.28,22.13,22.13,0,0,0-9.33-5.76,36.89,36.89,0,0,0-12.5-1.28,32.47,32.47,0,0,0-18.8,6.71q-7.94,6.18-11.57,17.9c-2.43,7.8-3.05,17.08-2,27.83s3.28,19.95,6.5,27.42,7.37,13,12.46,16.6a27.7,27.7,0,0,0,17.95,4.86A36.61,36.61,0,0,0,546.28,653a20,20,0,0,0,8.1-6.51c2.15-2.9,4.13-7.12,6-12.66l9.69-.27q.41,11.87.83,23.73a177.15,177.15,0,0,1-18.26,3.68c-6.22.93-13.08,1.57-20.56,2-16.11.83-28.68-3-38-11.9s-15.32-22.6-17.57-41.39c-1.41-11.79-.38-22.31,3.25-31.56a45,45,0,0,1,18.5-22.1c8.7-5.47,19.56-8.56,32.4-9.16a164,164,0,0,1,17.8.06A160.5,160.5,0,0,1,567.11,549.22Z"/><path class="cls-3" d="M690.27,548.35q-.88,12.52-1.77,25c-3.37-.17-6.75-.32-10.13-.47a56.44,56.44,0,0,0-2.78-7.27,28.53,28.53,0,0,0-3.15-5.28,14.73,14.73,0,0,0-3.74-3.47,14.27,14.27,0,0,0-5-1.88,46.62,46.62,0,0,0-7-.68q-16.59-.48-33.19-.65-.3,21.75-.59,43.5,10.82.11,21.64.35a19.15,19.15,0,0,0,7-.86,9.5,9.5,0,0,0,4.35-3.4,29.91,29.91,0,0,0,3.55-7.7c3.2.1,6.41.22,9.61.34q-.86,15.92-1.73,31.84l-9.34-.33a26.13,26.13,0,0,0-2.75-7.6,9.73,9.73,0,0,0-3.91-3.73,17.66,17.66,0,0,0-7-1.26q-10.74-.24-21.5-.35-.33,24-.65,47.89,15,.15,29.9.59a35,35,0,0,0,7.67-.46,13,13,0,0,0,5.18-2.22,17.3,17.3,0,0,0,4-4.29,36.52,36.52,0,0,0,3.09-5.56c.87-1.94,2.06-4.75,3.6-8.45q4.86.21,9.7.46-2,14.49-3.89,29-44.14-2.21-88.38-1.75l-.06-4.07q5.92-1.38,7.94-3a7.67,7.67,0,0,0,2.62-4.61,48.91,48.91,0,0,0,.6-9.14q-.12-35.9-.25-71.8a46.45,46.45,0,0,0-.55-8.34,9,9,0,0,0-1.75-4.06,8.47,8.47,0,0,0-3.22-2.31,40.51,40.51,0,0,0-6.86-1.89l-.06-4.07Q640.87,545.9,690.27,548.35Z"/><path class="cls-3" d="M740.37,616q-1.7,14-3.4,28.09a50.76,50.76,0,0,0-.52,8.68,9.56,9.56,0,0,0,1.09,4.19,7.45,7.45,0,0,0,2.59,2.48,35.81,35.81,0,0,0,6,2.51c-.18,1.35-.35,2.7-.53,4q-20-1.87-40.14-3.2c.13-1.36.25-2.71.38-4.06,4-.62,6.77-1.41,8.23-2.39a8.07,8.07,0,0,0,3.1-4.4,49.11,49.11,0,0,0,1.57-9.06q3.72-35.77,7.43-71.56a48.28,48.28,0,0,0,.34-8.35,8.9,8.9,0,0,0-1.31-4.18,8.19,8.19,0,0,0-3-2.54,39.28,39.28,0,0,0-6.64-2.4c.13-1.36.25-2.71.38-4.06q26.12,1.71,52.17,4.23c16.43,1.6,28.34,5.35,35.61,11s9.94,13.38,8.14,23.18a28.89,28.89,0,0,1-11.08,18.2c-6,4.64-14.22,7.85-24.7,9.73,0,.22-.07.44-.1.66a27.72,27.72,0,0,1,9.43,7c2.45,2.89,5,7.22,7.49,13q3.23,7.27,6.34,14.57a82.67,82.67,0,0,0,4.76,9.88,21.48,21.48,0,0,0,4.53,5.49,19.35,19.35,0,0,0,6.85,3.31l-.81,4q-13-1.85-26.16-3.46a99.69,99.69,0,0,1-5.24-10.21q-2.42-5.4-4.76-11-3.14-7.37-6.4-14.71a75.71,75.71,0,0,0-5-9.91,17.11,17.11,0,0,0-4.05-4.64,14.31,14.31,0,0,0-4.34-2.1,41.73,41.73,0,0,0-7.24-1.15Q745.84,616.49,740.37,616Zm6.8-56.19-5.94,49.08q5.67.48,11.32,1a82.88,82.88,0,0,0,14.26.34,31,31,0,0,0,10.61-2.87,23,23,0,0,0,8.67-7.21,27.88,27.88,0,0,0,4.84-12.32c.85-5.21.46-9.68-1.23-13.39a19.47,19.47,0,0,0-9-9c-4.32-2.3-10.39-3.84-18.21-4.58Q753.07,560,747.17,559.84Z"/><path class="cls-3" d="M871.79,684.75a62.82,62.82,0,0,1-19.66-6.8,39.12,39.12,0,0,1-13.68-12.64,45,45,0,0,1-6.68-19.08c-1-7.46-.49-16.14,1.57-26,2.53-12.18,7-22.31,13.48-30.35a50.81,50.81,0,0,1,24.5-16.8c9.83-3.13,20.62-3.67,32.22-1.58,12.36,2.23,22.16,6.37,29.26,12.28a36.62,36.62,0,0,1,13,22.54c1.58,9.09.43,19.52-3.3,31.3-4,12.58-9.62,22.7-16.73,30.42a53.48,53.48,0,0,1-24.43,15.6A63,63,0,0,1,871.79,684.75ZM854.3,621c-3.81,16.73-3.78,29.92-.13,39.57S864.94,676,875.72,678a29.87,29.87,0,0,0,18.94-2.34q8.73-4.23,15.53-14.34a89.34,89.34,0,0,0,11.12-24.59c3.48-11.76,4.91-21.81,4.17-30.16s-3.24-14.8-7.53-19.33-10-7.45-17-8.72a35.83,35.83,0,0,0-16.84.62A33.06,33.06,0,0,0,870.72,587a47.32,47.32,0,0,0-9.89,14.29A98.61,98.61,0,0,0,854.3,621Z"/><path class="cls-3" d="M1006.89,589.2a26.4,26.4,0,0,1-.21,6.23,28.39,28.39,0,0,1-1.42,5.84,24.51,24.51,0,0,1-5.44,8.85,38.73,38.73,0,0,1-9.37,6.72,153.88,153.88,0,0,1-16.88,7.3q-2.19-3.12-4.43-6.24A42.21,42.21,0,0,0,979.63,610a31.84,31.84,0,0,0,6.43-11.29,49.17,49.17,0,0,0,1.48-5.21c.42-1.86.87-4.74,1.33-8.62C994.88,586.28,1000.9,587.72,1006.89,589.2Z"/><path class="cls-3" d="M1006.37,687.27q-.9,7.51.59,12.44a16.81,16.81,0,0,0,5.63,8.29c2.75,2.24,6.69,4.11,11.83,5.64,7.06,2.11,13.15,2.18,18.35.15s9.21-6.08,12-12.21c1.78-3.93,2.49-7.48,2.08-10.66a21.24,21.24,0,0,0-4.56-10c-2.64-3.5-7.08-8-13.42-13.37a97.92,97.92,0,0,1-14-14,30.34,30.34,0,0,1-6-12.27A21.14,21.14,0,0,1,1020,629,28.86,28.86,0,0,1,1031.27,615q7.88-5.15,19.61-5.87a72.72,72.72,0,0,1,25,3.18,152.48,152.48,0,0,1,14.64,5.13,142.83,142.83,0,0,1,16.8,8.5q-5,10.58-10.07,21.13-4.82-1.54-9.64-3.07,1-7.61-.73-12.53a16.06,16.06,0,0,0-5.69-7.88,37.11,37.11,0,0,0-11.5-5.17,35,35,0,0,0-12.48-1.49,21.75,21.75,0,0,0-10.56,3.43,19.5,19.5,0,0,0-8.16,18.54,22,22,0,0,0,4.75,9.41,94.94,94.94,0,0,0,12.24,12c6.71,5.82,11.57,10.9,14.69,15.18a30.59,30.59,0,0,1,5.73,13.14,23.7,23.7,0,0,1-2.43,14.08,37.07,37.07,0,0,1-9.54,12.91,33,33,0,0,1-12.53,6.58,42.87,42.87,0,0,1-14.89,1.21,82.6,82.6,0,0,1-16.73-3.26c-9.42-2.81-19.73-7.34-31.12-13.53q4.2-10.92,8.41-21.84C1000.16,685.56,1003.26,686.41,1006.37,687.27Z"/></svg>